<?xml version="1.0" encoding="utf-8"?>
<!-- Generator: Adobe Illustrator 15.0.0, SVG Export Plug-In  -->
<!DOCTYPE svg [
	<!ENTITY ns_flows "http://ns.adobe.com/Flows/1.0/">
]>
<svg version="1.2" baseProfile="tiny"
	 xmlns="http://www.w3.org/2000/svg" xmlns:xlink="http://www.w3.org/1999/xlink" xmlns:a="http://ns.adobe.com/AdobeSVGViewerExtensions/3.0/"
	 x="0px" y="0px" width="1701px" height="662px" viewBox="-0.968 -16.006 1701 662" xml:space="preserve">
<defs>
</defs>
<path fill="#BCBEC0" d="M66.013,91.176h665.246c-2.586-9.914-3.973-20.314-3.973-31.039c0-12.156,1.796-23.888,5.09-34.974H0
	v620.518h303.859v-66.012H66.013V91.176z"/>
<path fill="#BCBEC0" d="M967.446,25.163c3.294,11.086,5.09,22.818,5.09,34.974c0,10.725-1.387,21.125-3.973,31.039h665.246v488.494
	h-225.944v66.012h291.957V25.163H967.446z"/>
<path fill="#BCBEC0" d="M285.526,322.1v148.746h-60.084V210.723h46.895l121.27,152.776V210.723h60.084v260.123h-48.361
	L285.526,322.1z"/>
<path fill="#BCBEC0" d="M574.222,210.723h54.222l94.89,260.123h-61.549l-20.15-58.253h-80.969l-19.783,58.253h-61.55
	L574.222,210.723z M631.741,371.193l-30.408-91.959l-31.142,91.959H631.741z"/>
<path fill="#BCBEC0" d="M764.37,210.723l61.185,184.65l60.45-184.65h63.383l-98.555,260.123h-50.559l-99.652-260.123H764.37z"/>
<path fill="#BCBEC0" d="M973.565,470.845V210.723h60.085v260.123H973.565z"/>
<path fill="#BCBEC0" d="M1239.546,286.928c-0.732-0.973-3.297-2.805-7.693-5.496c-4.396-2.685-9.893-5.496-16.487-8.426
	s-13.8-5.496-21.615-7.694c-7.819-2.198-15.633-3.297-23.448-3.297c-21.496,0-32.24,7.207-32.24,21.616
	c0,4.396,1.157,8.06,3.481,10.991c2.317,2.932,5.735,5.559,10.258,7.877c4.518,2.324,10.195,4.459,17.036,6.411
	c6.836,1.958,14.774,4.156,23.814,6.595c12.456,3.423,23.688,7.145,33.705,11.174c10.014,4.03,18.502,9.039,25.464,15.021
	c6.961,5.987,12.331,13.253,16.12,21.799c3.783,8.554,5.679,18.812,5.679,30.774c0,14.656-2.747,27.055-8.243,37.188
	c-5.496,10.139-12.766,18.317-21.799,24.546c-9.04,6.229-19.419,10.752-31.143,13.556c-11.725,2.806-23.814,4.213-36.271,4.213
	c-9.524,0-19.298-0.731-29.31-2.198c-10.018-1.463-19.784-3.601-29.309-6.411c-9.527-2.804-18.748-6.164-27.66-10.074
	c-8.92-3.905-17.163-8.427-24.731-13.556l26.38-52.391c0.971,1.225,4.149,3.542,9.524,6.961c5.37,3.423,12.027,6.841,19.966,10.258
	c7.935,3.423,16.791,6.476,26.563,9.16c9.765,2.69,19.657,4.029,29.675,4.029c21.25,0,31.875-6.469,31.875-19.417
	c0-4.883-1.592-8.914-4.762-12.091c-3.179-3.171-7.575-6.045-13.189-8.609c-5.622-2.565-12.275-4.947-19.969-7.144
	c-7.693-2.198-16.063-4.637-25.096-7.328c-11.971-3.663-22.35-7.63-31.141-11.907c-8.793-4.271-16.063-9.215-21.801-14.837
	c-5.74-5.617-10.018-12.091-12.822-19.418c-2.811-7.328-4.213-15.875-4.213-25.646c0-13.676,2.564-25.766,7.694-36.271
	c5.128-10.499,12.089-19.354,20.882-26.562c8.793-7.202,18.988-12.639,30.592-16.303c11.6-3.663,23.871-5.496,36.821-5.496
	c9.033,0,17.952,0.859,26.745,2.565c8.793,1.711,17.219,3.91,25.278,6.595c8.06,2.69,15.571,5.741,22.532,9.159
	c6.961,3.423,13.372,6.841,19.234,10.258L1239.546,286.928z"/>
<path fill="#BCBEC0" d="M1505.165,263.48h-79.137v207.365h-60.085V263.48h-79.502v-52.758h218.724V263.48z"/>
<path fill="#BCBEC0" d="M339.242,633.175v-37.496h13.625c3.063,0,5.747,0.493,8.055,1.479c2.305,0.986,4.232,2.324,5.783,4.013
	c1.547,1.689,2.71,3.671,3.483,5.94c0.774,2.272,1.164,4.693,1.164,7.262c0,2.854-0.432,5.432-1.296,7.736
	c-0.862,2.308-2.103,4.277-3.723,5.915c-1.618,1.637-3.565,2.903-5.834,3.803c-2.272,0.896-4.815,1.348-7.633,1.348H339.242z
	 M364.01,614.374c0-1.795-0.245-3.448-0.737-4.963c-0.494-1.516-1.216-2.817-2.166-3.907c-0.951-1.093-2.121-1.937-3.512-2.536
	c-1.392-0.597-2.968-0.896-4.728-0.896h-6.337v24.713h6.337c1.796,0,3.388-0.316,4.78-0.951c1.389-0.632,2.553-1.505,3.484-2.614
	c0.934-1.108,1.646-2.417,2.141-3.932C363.765,617.771,364.01,616.134,364.01,614.374z"/>
<path fill="#BCBEC0" d="M403.618,626.784v6.392h-26.035v-37.496h25.559v6.392h-18.271v9.028h15.789v5.915h-15.789v9.77H403.618z"/>
<path fill="#BCBEC0" d="M420.517,595.679h6.443l14.259,37.496h-7.499l-3.484-9.348h-13.098l-3.433,9.348h-7.499L420.517,595.679z
	 M428.914,618.706l-5.175-14.736l-5.389,14.736H428.914z"/>
<path fill="#BCBEC0" d="M445.865,633.175v-37.496h13.624c3.064,0,5.748,0.493,8.056,1.479c2.305,0.986,4.231,2.324,5.782,4.013
	c1.547,1.689,2.711,3.671,3.484,5.94c0.773,2.272,1.164,4.693,1.164,7.262c0,2.854-0.433,5.432-1.296,7.736
	c-0.862,2.308-2.104,4.277-3.724,5.915c-1.617,1.637-3.564,2.903-5.834,3.803c-2.271,0.896-4.815,1.348-7.633,1.348H445.865z
	 M470.633,614.374c0-1.795-0.245-3.448-0.738-4.963c-0.493-1.516-1.216-2.817-2.166-3.907c-0.951-1.093-2.121-1.937-3.512-2.536
	c-1.392-0.597-2.968-0.896-4.728-0.896h-6.336v24.713h6.336c1.796,0,3.389-0.316,4.78-0.951c1.39-0.632,2.553-1.505,3.484-2.614
	c0.934-1.108,1.647-2.417,2.141-3.932C470.388,617.771,470.633,616.134,470.633,614.374z"/>
<path fill="#BCBEC0" d="M483.359,621.875v-6.392h16.002v6.392H483.359z"/>
<path fill="#BCBEC0" d="M529.146,605.503c-0.246-0.248-0.694-0.583-1.346-1.006c-0.652-0.422-1.443-0.835-2.377-1.24
	c-0.933-0.403-1.945-0.748-3.036-1.028c-1.091-0.284-2.2-0.423-3.328-0.423c-2.005,0-3.503,0.368-4.488,1.109
	c-0.984,0.738-1.478,1.775-1.478,3.113c0,0.777,0.184,1.418,0.555,1.928c0.369,0.513,0.905,0.96,1.609,1.348
	c0.705,0.39,1.594,0.741,2.668,1.057c1.072,0.316,2.313,0.651,3.723,1.003c1.83,0.493,3.494,1.021,4.989,1.586
	c1.497,0.563,2.766,1.267,3.804,2.111c1.037,0.844,1.84,1.856,2.402,3.036s0.845,2.633,0.845,4.357c0,2.005-0.378,3.723-1.136,5.147
	c-0.758,1.428-1.776,2.579-3.063,3.459c-1.286,0.883-2.764,1.524-4.436,1.928c-1.672,0.406-3.424,0.608-5.254,0.608
	c-2.816,0-5.599-0.422-8.345-1.267c-2.746-0.848-5.212-2.043-7.394-3.594l3.221-6.282c0.318,0.316,0.889,0.731,1.717,1.241
	c0.827,0.509,1.805,1.021,2.932,1.531c1.127,0.509,2.377,0.941,3.75,1.292c1.373,0.354,2.78,0.529,4.225,0.529
	c4.013,0,6.02-1.283,6.02-3.855c0-0.809-0.229-1.495-0.688-2.06c-0.457-0.561-1.108-1.054-1.953-1.479
	c-0.844-0.423-1.866-0.81-3.062-1.16c-1.199-0.352-2.537-0.738-4.015-1.161c-1.795-0.493-3.354-1.031-4.674-1.611
	s-2.421-1.267-3.301-2.06s-1.541-1.708-1.98-2.746s-0.661-2.279-0.661-3.723c0-1.902,0.354-3.591,1.058-5.07s1.681-2.711,2.93-3.697
	c1.251-0.986,2.703-1.734,4.357-2.243c1.654-0.51,3.434-0.768,5.335-0.768c2.64,0,5.07,0.416,7.288,1.241
	c2.218,0.828,4.153,1.805,5.809,2.933L529.146,605.503z"/>
<path fill="#BCBEC0" d="M539.707,633.175v-37.496h7.288v37.496H539.707z"/>
<path fill="#BCBEC0" d="M585.916,633.175v-24.822l-9.663,18.485h-3.962l-9.663-18.485v24.822h-7.288v-37.496h7.816l11.09,21.335
	l11.196-21.335h7.762v37.496H585.916z"/>
<path fill="#BCBEC0" d="M601.549,633.175v-37.496h15.894c1.725,0,3.32,0.36,4.78,1.083c1.46,0.722,2.721,1.673,3.776,2.853
	s1.884,2.518,2.481,4.013c0.599,1.496,0.897,3.001,0.897,4.516c0,1.583-0.281,3.124-0.844,4.619
	c-0.564,1.499-1.357,2.827-2.377,3.987c-1.021,1.164-2.254,2.095-3.695,2.801c-1.444,0.703-3.03,1.055-4.755,1.055h-8.87v12.57
	H601.549z M608.837,614.216h8.447c1.338,0,2.457-0.545,3.354-1.638c0.897-1.09,1.346-2.569,1.346-4.436
	c0-0.95-0.141-1.805-0.423-2.563c-0.28-0.757-0.65-1.398-1.108-1.927c-0.458-0.529-0.994-0.926-1.61-1.189
	c-0.617-0.262-1.24-0.394-1.874-0.394h-8.132V614.216z"/>
<path fill="#BCBEC0" d="M634.976,633.175v-37.496h7.288v31.104h19.117v6.392H634.976z"/>
<path fill="#BCBEC0" d="M692.379,626.784v6.392h-26.034v-37.496h25.561v6.392h-18.273v9.028h15.789v5.915h-15.789v9.77H692.379z"/>
<path fill="#BCBEC0" d="M719.102,609.146v24.029h-7.288v-37.496h5.65l19.539,24.609v-24.558h7.288v37.444h-5.915L719.102,609.146z"
	/>
<path fill="#BCBEC0" d="M763.304,595.679h6.443l14.258,37.496h-7.499l-3.485-9.348h-13.097l-3.433,9.348h-7.499L763.304,595.679z
	 M771.7,618.706l-5.175-14.736l-5.388,14.736H771.7z"/>
<path fill="#BCBEC0" d="M789.288,595.679l10.139,28.358l10.034-28.358h7.658l-14.629,37.496h-6.126l-14.733-37.496H789.288z"/>
<path fill="#BCBEC0" d="M821.657,633.175v-37.496h7.288v37.496H821.657z"/>
<path fill="#BCBEC0" d="M863.325,628.95c-2.993,2.994-6.478,4.49-10.457,4.49c-2.464,0-4.778-0.493-6.944-1.479
	c-2.164-0.986-4.048-2.341-5.65-4.068c-1.602-1.724-2.87-3.755-3.802-6.099c-0.934-2.34-1.398-4.866-1.398-7.577
	c0-2.569,0.465-4.99,1.398-7.263c0.932-2.269,2.218-4.258,3.855-5.966c1.637-1.708,3.564-3.065,5.782-4.067
	c2.218-1.003,4.628-1.506,7.234-1.506c3.521,0,6.54,0.741,9.058,2.218c2.518,1.479,4.409,3.468,5.678,5.97l-5.441,4.013
	c-0.949-1.866-2.278-3.291-3.986-4.277c-1.707-0.986-3.563-1.479-5.572-1.479c-1.584,0-3.035,0.335-4.355,1.003
	c-1.32,0.67-2.447,1.586-3.38,2.746c-0.933,1.163-1.655,2.501-2.166,4.013c-0.509,1.515-0.766,3.117-0.766,4.806
	c0,1.764,0.282,3.407,0.847,4.938c0.563,1.531,1.338,2.862,2.322,3.987c0.986,1.128,2.156,2.018,3.512,2.669
	c1.355,0.65,2.826,0.977,4.41,0.977c3.625,0,6.9-1.709,9.822-5.122v-2.644h-7.551V613.9h13.571v19.275h-6.021V628.95z"/>
<path fill="#BCBEC0" d="M886.772,595.679h6.443l14.258,37.496h-7.498l-3.486-9.348h-13.096l-3.434,9.348h-7.499L886.772,595.679z
	 M895.169,618.706l-5.175-14.736l-5.388,14.736H895.169z"/>
<path fill="#BCBEC0" d="M936.466,602.071h-11.989v31.104h-7.234v-31.104h-11.987v-6.392h31.211V602.071z"/>
<path fill="#BCBEC0" d="M941.641,633.175v-37.496h7.288v37.496H941.641z"/>
<path fill="#BCBEC0" d="M973.273,633.44c-2.746,0-5.237-0.539-7.474-1.612s-4.154-2.498-5.756-4.277
	c-1.602-1.778-2.844-3.81-3.723-6.098c-0.881-2.289-1.32-4.632-1.32-7.027c0-2.498,0.466-4.893,1.398-7.181
	c0.934-2.289,2.219-4.313,3.855-6.073s3.582-3.159,5.836-4.196c2.253-1.041,4.699-1.561,7.341-1.561c2.711,0,5.183,0.555,7.42,1.663
	c2.235,1.109,4.146,2.563,5.729,4.358c1.584,1.795,2.816,3.839,3.697,6.127c0.88,2.289,1.32,4.612,1.32,6.969
	c0,2.502-0.459,4.887-1.374,7.156c-0.915,2.272-2.184,4.277-3.802,6.021c-1.619,1.744-3.557,3.133-5.81,4.171
	C978.36,632.92,975.913,633.44,973.273,633.44z M962.394,614.425c0,1.622,0.246,3.188,0.74,4.703
	c0.492,1.512,1.205,2.85,2.139,4.013c0.933,1.16,2.076,2.096,3.432,2.798c1.355,0.706,2.896,1.058,4.621,1.058
	c1.76,0,3.318-0.361,4.674-1.083c1.355-0.723,2.5-1.683,3.433-2.879c0.933-1.195,1.638-2.543,2.112-4.038
	c0.477-1.496,0.713-3.021,0.713-4.571c0-1.618-0.254-3.185-0.766-4.699c-0.511-1.512-1.232-2.85-2.164-4.013
	c-0.934-1.16-2.079-2.086-3.434-2.772s-2.878-1.031-4.568-1.031c-1.76,0-3.326,0.364-4.699,1.083
	c-1.373,0.722-2.518,1.673-3.434,2.853c-0.915,1.18-1.609,2.518-2.085,4.013C962.632,611.357,962.394,612.878,962.394,614.425z"/>
<path fill="#BCBEC0" d="M1005.01,609.146v24.029h-7.288v-37.496h5.65l19.54,24.609v-24.558h7.288v37.444h-5.915L1005.01,609.146z"/>
<path fill="#BCBEC0" d="M1077.782,628.95c-2.993,2.994-6.478,4.49-10.457,4.49c-2.464,0-4.778-0.493-6.944-1.479
	c-2.165-0.986-4.048-2.341-5.65-4.068c-1.603-1.724-2.87-3.755-3.802-6.099c-0.934-2.34-1.398-4.866-1.398-7.577
	c0-2.569,0.465-4.99,1.398-7.263c0.932-2.269,2.218-4.258,3.855-5.966c1.637-1.708,3.564-3.065,5.782-4.067
	c2.218-1.003,4.628-1.506,7.234-1.506c3.521,0,6.54,0.741,9.058,2.218c2.518,1.479,4.409,3.468,5.678,5.97l-5.441,4.013
	c-0.949-1.866-2.278-3.291-3.986-4.277c-1.707-0.986-3.564-1.479-5.572-1.479c-1.584,0-3.036,0.335-4.355,1.003
	c-1.32,0.67-2.447,1.586-3.38,2.746c-0.933,1.163-1.655,2.501-2.166,4.013c-0.509,1.515-0.766,3.117-0.766,4.806
	c0,1.764,0.282,3.407,0.847,4.938c0.563,1.531,1.337,2.862,2.322,3.987c0.986,1.128,2.156,2.018,3.512,2.669
	c1.355,0.65,2.826,0.977,4.41,0.977c3.625,0,6.9-1.709,9.822-5.122v-2.644h-7.551V613.9h13.571v19.275h-6.021V628.95z"/>
<path fill="#BCBEC0" d="M1116.595,626.784v6.392h-26.034v-37.496h25.56v6.392h-18.271v9.028h15.789v5.915h-15.789v9.77H1116.595z"/>
<path fill="#BCBEC0" d="M1130.116,609.146v24.029h-7.287v-37.496h5.65l19.539,24.609v-24.558h7.287v37.444h-5.914L1130.116,609.146z
	"/>
<path fill="#BCBEC0" d="M1189.686,626.784v6.392h-26.034v-37.496h25.561v6.392h-18.273v9.028h15.789v5.915h-15.789v9.77H1189.686z"
	/>
<path fill="#BCBEC0" d="M1195.917,633.175v-37.496h16.582c1.725,0,3.318,0.36,4.779,1.083c1.462,0.722,2.721,1.673,3.775,2.853
	c1.058,1.18,1.885,2.518,2.482,4.013c0.6,1.496,0.899,3.001,0.899,4.516c0,2.428-0.607,4.639-1.823,6.627
	c-1.215,1.989-2.86,3.424-4.938,4.304l8.557,14.102h-8.186l-7.659-12.57h-7.181v12.57H1195.917z M1203.206,614.216h9.136
	c0.667,0,1.292-0.158,1.874-0.478c0.58-0.315,1.084-0.744,1.506-1.292c0.422-0.545,0.756-1.189,1.002-1.928s0.371-1.531,0.371-2.376
	c0-0.88-0.143-1.691-0.422-2.43c-0.283-0.738-0.661-1.38-1.137-1.928c-0.476-0.545-1.021-0.967-1.638-1.267
	c-0.615-0.3-1.241-0.448-1.874-0.448h-8.818V614.216z"/>
<path fill="#BCBEC0" d="M1241.651,595.679h6.443l14.258,37.496h-7.499l-3.485-9.348h-13.097l-3.433,9.348h-7.499L1241.651,595.679z
	 M1250.048,618.706l-5.176-14.736l-5.387,14.736H1250.048z"/>
<path fill="#BCBEC0" d="M1291.346,602.071h-11.989v31.104h-7.234v-31.104h-11.987v-6.392h31.211V602.071z"/>
<path fill="#BCBEC0" d="M1310.778,633.44c-2.746,0-5.237-0.539-7.473-1.612c-2.236-1.073-4.154-2.498-5.757-4.277
	c-1.603-1.778-2.843-3.81-3.723-6.098c-0.88-2.289-1.32-4.632-1.32-7.027c0-2.498,0.466-4.893,1.399-7.181
	c0.933-2.289,2.217-4.313,3.854-6.073s3.583-3.159,5.836-4.196c2.253-1.041,4.7-1.561,7.341-1.561c2.711,0,5.184,0.555,7.42,1.663
	c2.235,1.109,4.146,2.563,5.729,4.358c1.585,1.795,2.817,3.839,3.697,6.127c0.88,2.289,1.319,4.612,1.319,6.969
	c0,2.502-0.457,4.887-1.373,7.156c-0.915,2.272-2.184,4.277-3.801,6.021c-1.62,1.744-3.558,3.133-5.811,4.171
	C1315.865,632.92,1313.419,633.44,1310.778,633.44z M1299.898,614.425c0,1.622,0.247,3.188,0.739,4.703
	c0.494,1.512,1.206,2.85,2.139,4.013c0.934,1.16,2.078,2.096,3.434,2.798c1.355,0.706,2.896,1.058,4.621,1.058
	c1.76,0,3.318-0.361,4.673-1.083c1.355-0.723,2.5-1.683,3.433-2.879c0.934-1.195,1.638-2.543,2.113-4.038
	c0.476-1.496,0.713-3.021,0.713-4.571c0-1.618-0.256-3.185-0.766-4.699c-0.512-1.512-1.233-2.85-2.165-4.013
	c-0.933-1.16-2.079-2.086-3.433-2.772c-1.355-0.687-2.879-1.031-4.568-1.031c-1.761,0-3.327,0.364-4.7,1.083
	c-1.373,0.722-2.518,1.673-3.433,2.853c-0.916,1.18-1.61,2.518-2.086,4.013C1300.138,611.357,1299.898,612.878,1299.898,614.425z"/>
<path fill="#BCBEC0" d="M1335.231,633.175v-37.496h16.582c1.725,0,3.318,0.36,4.779,1.083c1.462,0.722,2.721,1.673,3.775,2.853
	c1.058,1.18,1.885,2.518,2.482,4.013c0.6,1.496,0.899,3.001,0.899,4.516c0,2.428-0.607,4.639-1.823,6.627
	c-1.215,1.989-2.86,3.424-4.938,4.304l8.557,14.102h-8.186l-7.659-12.57h-7.181v12.57H1335.231z M1342.521,614.216h9.136
	c0.667,0,1.292-0.158,1.874-0.478c0.58-0.315,1.084-0.744,1.506-1.292c0.422-0.545,0.756-1.189,1.002-1.928s0.371-1.531,0.371-2.376
	c0-0.88-0.143-1.691-0.422-2.43c-0.283-0.738-0.661-1.38-1.137-1.928c-0.476-0.545-1.021-0.967-1.638-1.267
	c-0.615-0.3-1.241-0.448-1.874-0.448h-8.818V614.216z"/>
<polygon fill="#BCBEC0" stroke="#BCBEC0" stroke-width="7" stroke-miterlimit="10" points="805.651,105.393 849.911,8.429 
	894.17,105.393 849.911,82.591 "/>
</svg>
